<?xml version="1.0" encoding="utf-8"?>
<!-- Generator: Adobe Illustrator 22.0.1, SVG Export Plug-In . SVG Version: 6.00 Build 0)  -->
<svg version="1.1" id="Layer_1" xmlns="http://www.w3.org/2000/svg" xmlns:xlink="http://www.w3.org/1999/xlink" x="0px" y="0px"
	 width="1766.4px" height="472px" viewBox="0 0 1766.4 472" style="enable-background:new 0 0 1766.4 472;" xml:space="preserve">
<style type="text/css">
	.st0{fill:#FFFFFF;}
	.st1{font-family:'CatCafe';}
	.st2{font-size:460px;}
</style>
<title>fluffycat-typelogo-white</title>
<g>
	<g>
		<path class="st0" d="M1330.3,77.5c4.7-0.4,8.3-2.2,10.4-3.3c1.2-0.6,5.2-2.7,10.7-8.4c6.3-6.5,9.8-12.7,13.5-19.3
			c3.4-6,5.1-9.2,6.3-13.9c1.3-5,3.7-14-0.4-17.7c-0.9-0.8-3.3-2.4-17.9,1.5c-10.5,2.8-15.7,4.2-21,7.4c-11,6.6-16.4,15.2-20.7,22.2
			c-2.5,4.1-3.8,7.1-4.2,10.7c-0.2,1.7-0.8,7.4,2.6,12.7C1315.6,78.7,1329,77.6,1330.3,77.5z"/>
		<path class="st0" d="M1167.5,67.5c0.2-4.7-1-8.5-1.8-10.7c-0.4-1.3-1.9-5.5-6.8-11.8c-5.6-7.2-11.1-11.5-17.2-16.1
			c-5.5-4.2-8.4-6.3-12.9-8.2c-4.8-2-13.3-5.7-17.6-2.1c-0.9,0.8-2.9,2.9-1.1,17.9c1.3,10.8,1.9,16.2,4.3,21.8
			c4.9,11.9,12.7,18.4,19,23.6c3.7,3.1,6.5,4.8,10,5.7c1.6,0.4,7.3,1.9,12.9-0.7C1166.5,82.2,1167.4,68.8,1167.5,67.5z"/>
	</g>
	<text transform="matrix(1 0 0 1 0 368)" class="st0 st1 st2">FluffyCat</text>
</g>
</svg>
