<?xml version="1.0" encoding="utf-8"?>
<!-- Generator: Adobe Illustrator 22.0.1, SVG Export Plug-In . SVG Version: 6.00 Build 0)  -->
<svg version="1.1" id="Layer_1" xmlns="http://www.w3.org/2000/svg" xmlns:xlink="http://www.w3.org/1999/xlink" x="0px" y="0px"
	 viewBox="0 0 1360 1378.8" style="enable-background:new 0 0 1360 1378.8;" xml:space="preserve">
<style type="text/css">
	.st0{fill:#FFFFFF;}
	.st1{font-family:'CatCafe';}
	.st2{font-size:100px;}
</style>
<title>fluffycat-logo-purple</title>
<path class="st0" d="M1360,741.7c-1.8-91.7-21.6-183.3-58.4-267c-73.5-168-210.6-300-381.2-367.3c-83.6-32.6-172.8-48.5-262.5-46.7
	c-88.8,1.8-177.4,21.1-258.1,56.8C319,153.1,246,204.2,185,268C124.4,331.2,76.8,405.7,45,487.3c-63.3,162.9-59.6,344.3,10.2,504.5
	c34.4,78.2,83.8,148.9,145.4,208.1c61.2,58.6,133.6,105.1,211.9,135.5c238.6,93.9,510.3,34.2,687.6-151.1
	c56.5-59.2,100.9-128.8,130.6-205.1c17.8-45.9,30-93.7,36.4-142.5c1.7,0.1,3.5,0.1,5.1,0.1c48.5,0,87.7-39.3,87.7-87.8
	c0-2.5-0.1-4.9-0.3-7.4L1360,741.7L1360,741.7z M1220.5,975.1c-64.6,146.6-184.6,261.7-333.8,320
	c-222.1,87.1-474.9,31.3-639.6-141.4C141.4,1043,84.1,894.8,87.8,741.9c3.2-150,66.1-292.6,174.7-396.1
	c52.9-50.5,115.3-90.1,183.5-116.6c135.7-52.3,286.6-48.7,419.6,10.1c130.3,58.1,232.3,165.4,283.8,298.5
	c25,65,36.8,134.3,34.8,203.9h0.3c-0.1,2.4-0.3,4.9-0.3,7.4c0,44.8,33.7,82.5,78.3,87.3C1254.2,884.2,1240.1,930.8,1220.5,975.1z"/>
<path class="st0" d="M530.5,563c-15.5-5.7-26.8,15.8-58.9,27.9c-25.4,9.6-48.2,7.5-62,6.2c-16.5-1.5-47.1-4.4-74.4-24.8
	c-13.1-9.8-18.9-18.7-31-18.6c-13.7,0.1-28.5,11.8-27.9,21.7c0.5,8.2,11.4,13.3,31,21.7c39.6,17,58.6,28.1,77.5,31
	c13.3,1.9,26.8,2.5,40.3,1.6c4.1-0.3,3.8-0.5,31-4.7c26.7-4.1,28.8-4.3,34.1-6.2c9.3-3.4,7.9-4.7,27.9-15.5
	c19.5-10.5,24.9-11.4,26.4-17.1C546.6,578.4,539.9,566.4,530.5,563z"/>
<path class="st0" d="M1044.6,567.6c-15.5-5.7-26.8,15.8-58.9,27.9c-25.4,9.6-48.2,7.5-62,6.2c-16.5-1.5-47.1-4.4-74.4-24.8
	c-13.1-9.8-18.9-18.7-31-18.6c-13.7,0.1-28.5,11.8-27.9,21.7c0.5,8.2,11.4,13.3,31,21.7c39.6,17,58.6,28.1,77.5,31
	c13.3,1.9,26.8,2.5,40.3,1.6c4.1-0.3,3.8-0.5,31-4.7c26.7-4.1,28.8-4.3,34.1-6.2c9.3-3.4,7.9-4.7,27.9-15.5
	c19.5-10.5,24.9-11.4,26.4-17.1C1060.7,583,1054,571,1044.6,567.6z"/>
<path class="st0" d="M655,744.5c-8,0-14.1,5.8-26,17.3c-13.4,13-20.3,19.7-22.3,31c-0.4,2.2-3,18.3,6.2,24.8c7,5,17.2,1.7,18.6,1.2
	c10.4-3.5,12.5-12,18.6-11.2c4.6,0.7,4.4,5.5,11.2,9.9c7.7,4.9,16.3,4.1,19.8,3.7s18.2-1.8,22.3-11.2c2.3-5.3-0.5-11.4-6.2-23.5
	c-5.2-11-9.7-20.5-19.8-29.7C669.9,750.1,663.6,744.5,655,744.5z"/>
<path class="st0" d="M545.9,905.4c-8.9,10.3-13.3,15.5-13.7,22.4c-0.7,13.3,12.1,22.8,15,24.9c9.6,7.2,20,8,29.9,8.7
	c5.4,0.4,11.6-0.1,23.7-1.2c22.7-2.1,34.2-3.2,39.9-6.2c12.9-6.9,15.4-16.3,22.4-15c6.4,1.2,6.1,9.3,15,17.4
	c7.5,7,15.9,8.6,28.7,11.2c17.7,3.6,31.6,1.4,39.9,0c13.5-2.3,22-3.8,28.7-11.2c4.6-5.2,6.3-11,7.5-15c1.7-5.8,4.4-15,0-23.7
	c-3.3-6.5-10.5-12.8-15-11.2c-3.4,1.2-2.5,6.1-7.5,18.7c-2.8,7.1-4.3,10.8-7.5,13.7c-5.4,5-12.3,5.7-18.7,6.2
	c-4.6,0.4-14.5,1.2-24.9-3.7c-4-1.9-10.2-7.9-22.4-19.9c-6.2-6.1-15-15-15-15l0,0c0,0-12.3-8-19.9-5c-4.8,1.9-4.2,6.8-10,16.2
	c-2.6,4.3-7.8,12.8-16.2,17.4c-7,3.8-15.9,3-33.7,1.2c-19.2-1.9-22.4-4.8-23.7-6.2c-3.4-3.7-4.8-8.9-7.5-18.7
	c-2.4-8.7-2.4-12.9-5-13.7C554.9,897.6,552.7,897.6,545.9,905.4z"/>
<path class="st0" d="M481,788l-3.3,14.9l-21.5-2.5h-15.7l-23.1,0.8l-27.3,4.1l-24.8,5.8l-29.7,8.3l13.2-9.9l24-10.7l28.9-7.4
	c0,0,32.2-3.3,34.7-3.3s27.3-0.8,29.7-0.8S481,788,481,788z"/>
<path class="st0" d="M474.4,835.9l-1.9,8.4l-12.1-1.4h-8.9l-13,0.5l-15.4,2.3l-14,3.3l-16.8,4.7l7.5-5.6l13.5-6.1l16.3-4.2
	c0,0,18.2-1.9,19.6-1.9s15.4-0.5,16.8-0.5S474.4,835.9,474.4,835.9z"/>
<path class="st0" d="M794.4,797.3l3.2,14.9l20.8-2.5h15.2l22.4,0.8l26.4,4.1l24,5.8l28.6,8.3l-12.8-9.9L899,808.1l-28-7.4
	c0,0-31.2-3.3-33.6-3.3c-2.4,0-26.4-0.8-28.8-0.8C806.2,796.6,794.4,797.3,794.4,797.3z"/>
<path class="st0" d="M800.8,845.2l1.8,8.4l11.7-1.4h8.6l12.6,0.5l14.9,2.3l13.5,3.3l16.2,4.7l-7.2-5.6l-13.1-6.1l-15.8-4.2
	c0,0-17.6-1.9-18.9-1.9s-14.9-0.5-16.2-0.5S800.8,845.2,800.8,845.2z"/>
<text transform="matrix(1 0 0 1 48.0705 115.9859)" class="st0 st1 st2">ALPHA</text>
</svg>
