<?xml version="1.0" encoding="utf-8"?>
<!-- Generator: Adobe Illustrator 22.0.1, SVG Export Plug-In . SVG Version: 6.00 Build 0)  -->
<svg version="1.1" id="Layer_1" xmlns="http://www.w3.org/2000/svg" xmlns:xlink="http://www.w3.org/1999/xlink" x="0px" y="0px"
	 viewBox="0 0 1309 758" style="enable-background:new 0 0 1309 758;" xml:space="preserve">
<style type="text/css">
	.st0{fill:#2690BE;}
	.st1{fill:#2B8047;}
	.st2{fill:#193A64;}
	.st3{fill:#1F5D37;}
	.st4{fill:#245182;}
	.st5{fill:#0C4E64;}
	.st6{fill:#1B6683;}
	.st7{fill:#4B81B1;}
	.st8{fill:#113F33;}
</style>
<title>projects-bg</title>
<g id="Layer_2_1_">
	<g id="Layer_1-2">
		<path class="st0" d="M502,0h807v758H506c-19.1-22.6-38.1-45.3-57.2-67.8c-14.6-17.2-29.5-34.2-44.2-51.3
			c-19.1-22.4-38.1-44.9-57.2-67.2c-16.5-19.3-33.3-38.4-49.8-57.8c-17-19.8-33.7-39.8-50.6-59.7c-21.9-25.6-43.8-51.3-65.8-76.8
			l-0.2-1.5c7-8,14-16,20.9-24.1c34.5-40.3,69.1-80.7,103.6-121.1c25.5-29.9,51-59.8,76.4-89.8C421.8,94,461.9,47,502,0z"/>
		<path class="st1" d="M181.1,377.4c21.9,25.6,43.9,51.2,65.8,76.8c16.9,19.8,33.7,39.8,50.6,59.7c16.5,19.3,33.2,38.5,49.8,57.8
			c19.1,22.3,38.1,44.8,57.2,67.2c14.7,17.1,29.6,34.1,44.2,51.3c19.2,22.5,38.2,45.2,57.2,67.8H266c-1.4-2.3-2.9-4.4-4.5-6.5
			c-24.2-28.4-48.4-56.8-72.7-85.1c-33.1-38.7-66.3-77.5-99.5-116.2c-9.3-10.9-18.8-21.6-28.2-32.4c1.7-2.2,3.3-4.6,5.2-6.7
			c30.1-35.3,60.2-70.6,90.4-105.9C164.7,395.8,172.9,386.7,181.1,377.4z"/>
		<path class="st2" d="M502,0c-40.1,47-80.2,94-120.3,141c-25.5,29.9-50.9,59.8-76.4,89.8c-34.5,40.4-69,80.8-103.6,121.1
			c-6.9,8.1-14,16.1-20.9,24.1c-5.1-5.7-10.4-11.2-15.4-17c-27.3-31.8-54.5-63.6-81.8-95.5c-6.6-7.7-13.5-15.1-20.2-22.7l0.5-2.7
			c2-2,4.2-3.9,6-6c26.9-31.7,53.9-63.4,80.8-95.2c32.3-37.9,64.6-75.7,97-113.5C254.3,15.8,260.6,7.8,267,0H502z"/>
		<path class="st3" d="M61.1,517.8c9.4,10.8,18.9,21.5,28.2,32.4c33.2,38.7,66.3,77.4,99.5,116.2c24.3,28.4,48.5,56.7,72.7,85.1
			c1.6,2.1,3.1,4.3,4.5,6.5H32c-0.8-1.8-1.9-3.5-3-5.1c-6.2-7.4-12.3-14.8-18.8-22c-3.1-3.5-6.8-6.6-10.2-9.9c0-44.3,0-88.7,0-133
			c1.4-1.4,3-2.7,4.3-4.2c12-14,23.8-28.1,35.8-42.1C47,533.6,54.1,525.8,61.1,517.8z"/>
		<path class="st4" d="M267,0c-6.4,7.8-12.7,15.8-19.3,23.5c-32.3,37.9-64.6,75.7-97,113.5c-27,31.6-53.9,63.4-80.8,95.1
			c-1.8,2.1-4,4-6,6c-2.4-2-5.2-3.7-7.2-6c-6.5-7.3-12.7-14.9-19.1-22.4C25.2,195.1,12.6,180.5,0,166c0-42,0-84,0-126L34,0H267z"/>
		<path class="st5" d="M61.1,517.8c-7,8-14.1,15.9-21,23.9c-12,14-23.9,28.1-35.8,42.1C3,585.3,1.4,586.6,0,588
			c0-91.7,0-183.3,0-275c2-1.7,3.9-3.6,5.7-5.5c13.5-15.8,26.9-31.7,40.4-47.5c5.6-6.5,11.6-12.8,17.4-19.1
			c6.8,7.6,13.6,15,20.2,22.7c27.3,31.8,54.6,63.6,81.8,95.5c5,5.8,10.2,11.3,15.4,17l0.2,1.5c-8.1,9.2-16.4,18.4-24.4,27.7
			c-30.2,35.2-60.3,70.5-90.4,105.9C64.5,513.2,62.8,515.5,61.1,517.8z"/>
		<path class="st6" d="M63.5,240.8c-5.8,6.4-11.8,12.6-17.4,19.2c-13.5,15.8-26.9,31.7-40.4,47.5C3.9,309.4,2,311.3,0,313
			c0-49,0-98,0-147c12.6,14.6,25.2,29.2,37.8,43.7c6.4,7.4,12.6,15,19.1,22.4c2,2.3,4.8,4,7.2,6L63.5,240.8z"/>
		<path class="st7" d="M34,0L0,40V0H34z"/>
		<path class="st8" d="M0,721c3.4,3.3,7.1,6.3,10.3,9.9c6.4,7.2,12.6,14.6,18.8,22c1.1,1.6,2.1,3.3,3,5.1H0C0,745.7,0,733.3,0,721z"
			/>
	</g>
</g>
</svg>
