<svg xmlns="http://www.w3.org/2000/svg" width="1758.09" height="471.96" viewBox="0 0 1758.09 471.96"><defs><style>.a{isolation:isolate;font-size:460px;font-family:CatCafe, CatCafe;}.a,.b{fill:#fff;}</style></defs><title>fluffycat-typelogo-white</title><text class="a" transform="translate(0 368)">FluffyCat</text><path class="b" d="M1167.5,67.5a27.58,27.58,0,0,0-1.8-10.7c-.4-1.3-1.9-5.5-6.8-11.8-5.6-7.2-11.1-11.5-17.2-16.1-5.5-4.2-8.4-6.3-12.9-8.2-4.8-2-13.3-5.7-17.6-2.1-.9.8-2.9,2.9-1.1,17.9,1.3,10.8,1.9,16.2,4.3,21.8,4.9,11.9,12.7,18.4,19,23.6,3.7,3.1,6.5,4.8,10,5.7,1.6.4,7.3,1.9,12.9-.7C1166.5,82.2,1167.4,68.8,1167.5,67.5Z" transform="translate(0 0)"/><path class="b" d="M1330.3,77.5a26.92,26.92,0,0,0,10.4-3.3c1.2-.6,5.2-2.7,10.7-8.4,6.3-6.5,9.8-12.7,13.5-19.3,3.4-6,5.1-9.2,6.3-13.9,1.3-5,3.7-14-.4-17.7-.9-.8-3.3-2.4-17.9,1.5-10.5,2.8-15.7,4.2-21,7.4-11,6.6-16.4,15.2-20.7,22.2-2.5,4.1-3.8,7.1-4.2,10.7a19.36,19.36,0,0,0,2.6,12.7C1315.6,78.7,1329,77.6,1330.3,77.5Z" transform="translate(0 0)"/></svg>